<svg width="22" height="23" viewBox="0 0 22 23" fill="none" xmlns="http://www.w3.org/2000/svg">
<path d="M1.25393 8.33663L6.07896 9.67866C6.13656 9.69528 6.189 9.72623 6.23138 9.76862C6.27377 9.811 6.30472 9.86344 6.32134 9.92103L7.66337 14.7461C7.68427 14.8192 7.72843 14.8836 7.78917 14.9294C7.84991 14.9752 7.92392 15 8 15C8.07608 15 8.15009 14.9752 8.21083 14.9294C8.27157 14.8836 8.31573 14.8192 8.33663 14.7461L9.67866 9.92103C9.69528 9.86344 9.72623 9.811 9.76862 9.76862C9.811 9.72623 9.86344 9.69528 9.92103 9.67866L14.7461 8.33663C14.8192 8.31573 14.8836 8.27157 14.9294 8.21083C14.9752 8.15009 15 8.07608 15 8C15 7.92392 14.9752 7.84991 14.9294 7.78917C14.8836 7.72843 14.8192 7.68427 14.7461 7.66337L9.92103 6.32134C9.86344 6.30472 9.811 6.27377 9.76862 6.23138C9.72623 6.189 9.69528 6.13656 9.67866 6.07896L8.33663 1.25393C8.31573 1.18078 8.27157 1.11642 8.21083 1.0706C8.15009 1.02478 8.07608 1 8 1C7.92392 1 7.84991 1.02478 7.78917 1.0706C7.72843 1.11642 7.68427 1.18078 7.66337 1.25393L6.32134 6.07896C6.30472 6.13656 6.27377 6.189 6.23138 6.23138C6.189 6.27377 6.13656 6.30472 6.07896 6.32134L1.25393 7.66337C1.18078 7.68427 1.11642 7.72843 1.0706 7.78917C1.02478 7.84991 1 7.92392 1 8C1 8.07608 1.02478 8.15009 1.0706 8.21083C1.11642 8.27157 1.18078 8.31573 1.25393 8.33663Z" stroke="#251659" stroke-width="1.2" stroke-linecap="round" stroke-linejoin="round"/>
<path d="M11.1186 17.1777L14.5651 18.1363C14.6062 18.1482 14.6437 18.1703 14.674 18.2006C14.7042 18.2308 14.7263 18.2683 14.7382 18.3094L15.6968 21.7559C15.7117 21.8081 15.7433 21.8541 15.7867 21.8868C15.83 21.9196 15.8829 21.9373 15.9373 21.9373C15.9916 21.9373 16.0445 21.9196 16.0879 21.8868C16.1312 21.8541 16.1628 21.8081 16.1777 21.7559L17.1363 18.3094C17.1482 18.2683 17.1703 18.2308 17.2006 18.2006C17.2308 18.1703 17.2683 18.1482 17.3094 18.1363L20.7559 17.1777C20.8081 17.1628 20.8541 17.1312 20.8868 17.0879C20.9196 17.0445 20.9373 16.9916 20.9373 16.9373C20.9373 16.8829 20.9196 16.83 20.8868 16.7867C20.8541 16.7433 20.8081 16.7117 20.7559 16.6968L17.3094 15.7382C17.2683 15.7263 17.2308 15.7042 17.2006 15.674C17.1703 15.6437 17.1482 15.6062 17.1363 15.5651L16.1777 12.1186C16.1628 12.0664 16.1312 12.0204 16.0879 11.9877C16.0445 11.955 15.9916 11.9373 15.9373 11.9373C15.8829 11.9373 15.83 11.955 15.7867 11.9877C15.7433 12.0204 15.7117 12.0664 15.6968 12.1186L14.7382 15.5651C14.7263 15.6062 14.7042 15.6437 14.674 15.674C14.6437 15.7042 14.6062 15.7263 14.5651 15.7382L11.1186 16.6968C11.0664 16.7117 11.0204 16.7433 10.9877 16.7867C10.955 16.83 10.9373 16.8829 10.9373 16.9373C10.9373 16.9916 10.955 17.0445 10.9877 17.0879C11.0204 17.1312 11.0664 17.1628 11.1186 17.1777Z" stroke="#251659" stroke-linecap="round" stroke-linejoin="round"/>
</svg>
