<svg width="22" height="22" viewBox="0 0 22 22" fill="none" xmlns="http://www.w3.org/2000/svg">
<path d="M16.5 14.4375C16.1562 14.4375 15.8125 14.3 15.5375 14.025L13.475 11.9625C13.2 11.6875 13.0625 11.3438 13.0625 11C13.0625 10.6562 13.2 10.3125 13.475 10.0375L15.5375 7.975C15.8125 7.7 16.1562 7.5625 16.5 7.5625C16.8438 7.5625 17.1875 7.7 17.4625 7.975L19.525 10.0375C19.8 10.3125 19.9375 10.6562 19.9375 11C19.9375 11.3438 19.8 11.6875 19.525 11.9625L17.4625 14.025C17.1875 14.3 16.8438 14.4375 16.5 14.4375ZM16.5 8.9375L14.4375 11L16.5 13.0625L18.5625 11L16.5 8.9375ZM11 8.9375C10.6562 8.9375 10.3125 8.8 10.0375 8.525L7.975 6.4625C7.7 6.1875 7.5625 5.84375 7.5625 5.5C7.5625 5.15625 7.7 4.8125 7.975 4.5375L10.0375 2.475C10.3125 2.2 10.6562 2.0625 11 2.0625C11.3438 2.0625 11.6875 2.2 11.9625 2.475L14.025 4.5375C14.3 4.8125 14.4375 5.15625 14.4375 5.5C14.4375 5.84375 14.3 6.1875 14.025 6.4625L11.9625 8.525C11.6875 8.8 11.3438 8.9375 11 8.9375ZM11 3.4375L8.9375 5.5L11 7.5625L13.0625 5.5L11 3.4375ZM11 19.9375C10.6562 19.9375 10.3125 19.8 10.0375 19.525L7.975 17.4625C7.7 17.1875 7.5625 16.8438 7.5625 16.5C7.5625 16.1562 7.7 15.8125 7.975 15.5375L10.0375 13.475C10.3125 13.2 10.6562 13.0625 11 13.0625C11.3438 13.0625 11.6875 13.2 11.9625 13.475L14.025 15.5375C14.3 15.8125 14.4375 16.1562 14.4375 16.5C14.4375 16.8438 14.3 17.1875 14.025 17.4625L11.9625 19.525C11.6875 19.8 11.3438 19.9375 11 19.9375ZM11 14.4375L8.9375 16.5L11 18.5625L13.0625 16.5L11 14.4375ZM5.5 14.4375C5.15625 14.4375 4.8125 14.3 4.5375 14.025L2.475 11.9625C2.2 11.6875 2.0625 11.3438 2.0625 11C2.0625 10.6562 2.2 10.3125 2.475 10.0375L4.5375 7.975C4.8125 7.7 5.15625 7.5625 5.5 7.5625C5.84375 7.5625 6.1875 7.7 6.4625 7.975L8.525 10.0375C8.8 10.3125 8.9375 10.6562 8.9375 11C8.9375 11.3438 8.8 11.6875 8.525 11.9625L6.4625 14.025C6.1875 14.3 5.84375 14.4375 5.5 14.4375ZM5.5 8.9375L3.4375 11L5.5 13.0625L7.5625 11L5.5 8.9375Z" fill="#251659"/>
</svg>
