<svg width="20" height="20" viewBox="0 0 20 20" fill="none" xmlns="http://www.w3.org/2000/svg">
<g clip-path="url(#clip0_2010_67)">
<path d="M17.5059 6.85167C17.5086 6.2736 17.3504 5.70616 17.049 5.21287C16.7476 4.71958 16.3149 4.31989 15.7992 4.05853C15.2836 3.79717 14.7054 3.68445 14.1294 3.73298C13.5533 3.78152 13.0022 3.98939 12.5375 4.33334C12.0731 4.6776 11.7136 5.14437 11.4994 5.68137C11.2852 6.21836 11.2247 6.80439 11.3247 7.37382C11.4247 7.94325 11.6812 8.47361 12.0655 8.90549C12.4499 9.33738 12.9469 9.65375 13.5009 9.81917C13.2963 10.2349 12.9799 10.5854 12.5871 10.8312C12.1944 11.0771 11.7409 11.2085 11.2775 11.2108H8.78586C7.86391 11.2143 6.97615 11.5603 6.29503 12.1817V6.16667C7.05122 6.0124 7.72319 5.58284 8.18065 4.96126C8.63811 4.33969 8.84847 3.57039 8.77094 2.80252C8.69341 2.03466 8.33352 1.32294 7.76104 0.805352C7.18857 0.287765 6.44429 0.00119019 5.67253 0.00119019C4.90076 0.00119019 4.15648 0.287765 3.58401 0.805352C3.01153 1.32294 2.65164 2.03466 2.57411 2.80252C2.49658 3.57039 2.70694 4.33969 3.1644 4.96126C3.62186 5.58284 4.29383 6.0124 5.05002 6.16667V13.7642C4.29523 13.9084 3.61929 14.3238 3.14969 14.932C2.68009 15.5403 2.44931 16.2994 2.50087 17.0661C2.55243 17.8328 2.88277 18.5541 3.42957 19.094C3.97638 19.634 4.70185 19.9551 5.46916 19.997C6.23646 20.0388 6.99255 19.7984 7.59481 19.3211C8.19707 18.8438 8.60386 18.1627 8.73846 17.4061C8.87306 16.6496 8.72617 15.8699 8.32548 15.2142C7.92479 14.5585 7.29801 14.0721 6.56336 13.8467C6.76826 13.4314 7.08483 13.0814 7.47755 12.836C7.87028 12.5907 8.32362 12.4596 8.78669 12.4575H11.2784C12.0556 12.4542 12.8124 12.2084 13.4432 11.7545C14.0741 11.3005 14.5475 10.6609 14.7975 9.92501C15.5442 9.82705 16.2301 9.46176 16.7281 8.89682C17.2261 8.33188 17.5024 7.60475 17.5059 6.85167ZM3.80419 3.11501C3.80419 2.86965 3.85252 2.6267 3.94641 2.40003C4.0403 2.17335 4.17792 1.96739 4.35141 1.79389C4.5249 1.6204 4.73087 1.48278 4.95754 1.38889C5.18422 1.295 5.42717 1.24667 5.67253 1.24667C5.91788 1.24667 6.16083 1.295 6.38751 1.38889C6.61418 1.48278 6.82015 1.6204 6.99364 1.79389C7.16713 1.96739 7.30475 2.17335 7.39864 2.40003C7.49253 2.6267 7.54086 2.86965 7.54086 3.11501C7.54086 3.61052 7.34402 4.08574 6.99364 4.43612C6.64326 4.7865 6.16804 4.98334 5.67253 4.98334C5.17701 4.98334 4.70179 4.7865 4.35141 4.43612C4.00103 4.08574 3.80419 3.61052 3.80419 3.11501ZM7.54086 16.8158C7.54086 17.0612 7.49253 17.3041 7.39864 17.5308C7.30475 17.7575 7.16713 17.9635 6.99364 18.137C6.82015 18.3104 6.61418 18.4481 6.38751 18.542C6.16083 18.6358 5.91788 18.6842 5.67253 18.6842C5.42717 18.6842 5.18422 18.6358 4.95754 18.542C4.73087 18.4481 4.5249 18.3104 4.35141 18.137C4.17792 17.9635 4.0403 17.7575 3.94641 17.5308C3.85252 17.3041 3.80419 17.0612 3.80419 16.8158C3.80419 16.3203 4.00103 15.8451 4.35141 15.4947C4.70179 15.1443 5.17701 14.9475 5.67253 14.9475C6.16804 14.9475 6.64326 15.1443 6.99364 15.4947C7.34402 15.8451 7.54086 16.3203 7.54086 16.8158ZM14.3917 8.72001C13.8961 8.72001 13.4207 8.52312 13.0703 8.17266C12.7198 7.8222 12.5229 7.34688 12.5229 6.85126C12.5229 6.35563 12.7198 5.88031 13.0703 5.52985C13.4207 5.17939 13.8961 4.98251 14.3917 4.98251C14.8873 4.98251 15.3626 5.17939 15.7131 5.52985C16.0636 5.88031 16.2604 6.35563 16.2604 6.85126C16.2604 7.34688 16.0636 7.8222 15.7131 8.17266C15.3626 8.52312 14.8873 8.72001 14.3917 8.72001Z" fill="#251659"/>
</g>
<defs>
<clipPath id="clip0_2010_67">
<rect width="20" height="20" fill="white"/>
</clipPath>
</defs>
</svg>
