<svg xmlns="http://www.w3.org/2000/svg" width="14" height="10" viewBox="0 0 14 10" fill="none">
  <path d="M0.308162 1.27886C0.505537 1.08155 0.773199 0.970703 1.05229 0.970703C1.33138 0.970703 1.59904 1.08155 1.79641 1.27886L7.00635 6.4888L12.2163 1.27886C12.4148 1.08714 12.6807 0.981053 12.9566 0.983451C13.2326 0.985849 13.4966 1.09654 13.6917 1.29169C13.8869 1.48683 13.9976 1.75081 14 2.02678C14.0024 2.30274 13.8963 2.56861 13.7045 2.76712L7.75048 8.72118C7.5531 8.9185 7.28544 9.02935 7.00635 9.02935C6.72727 9.02935 6.4596 8.9185 6.26223 8.72118L0.308162 2.76712C0.110846 2.56974 0 2.30208 0 2.02299C0 1.7439 0.110846 1.47624 0.308162 1.27886Z" fill="#C7C7C7"/>
</svg>