<svg xmlns="http://www.w3.org/2000/svg" width="27" height="34" viewBox="0 0 27 34" fill="none">
  <path d="M7.11164 21.4668C6.80497 21.4668 6.5983 21.4968 6.49164 21.5268V23.4901C6.6183 23.5201 6.77664 23.5285 6.99497 23.5285C7.7933 23.5285 8.28497 23.1251 8.28497 22.4435C8.28497 21.8335 7.86164 21.4668 7.11164 21.4668ZM12.9233 21.4868C12.59 21.4868 12.3733 21.5168 12.245 21.5468V25.8968C12.3733 25.9268 12.58 25.9268 12.7666 25.9268C14.1283 25.9368 15.015 25.1868 15.015 23.6001C15.025 22.2168 14.2166 21.4868 12.9233 21.4868Z" fill="#EA4335"/>
  <path d="M16.6667 0.333008H3.33333C2.44928 0.333008 1.60143 0.684197 0.976311 1.30932C0.351189 1.93444 0 2.78229 0 3.66634V30.333C0 31.2171 0.351189 32.0649 0.976311 32.69C1.60143 33.3152 2.44928 33.6663 3.33333 33.6663H23.3333C24.2174 33.6663 25.0652 33.3152 25.6904 32.69C26.3155 32.0649 26.6667 31.2171 26.6667 30.333V10.333L16.6667 0.333008ZM9.16333 23.983C8.64833 24.4663 7.88833 24.683 7.00333 24.683C6.8317 24.6862 6.66008 24.6762 6.49 24.653V27.0297H5V20.4697C5.67246 20.3697 6.35187 20.324 7.03167 20.333C7.96 20.333 8.62 20.5097 9.065 20.8647C9.48833 21.2013 9.775 21.753 9.775 22.403C9.77333 23.0563 9.55667 23.608 9.16333 23.983ZM15.5083 26.2413C14.8083 26.823 13.7433 27.0997 12.4417 27.0997C11.6617 27.0997 11.11 27.0497 10.735 26.9997V20.4713C11.4077 20.3735 12.0869 20.3273 12.7667 20.333C14.0283 20.333 14.8483 20.5597 15.4883 21.043C16.18 21.5563 16.6133 22.3747 16.6133 23.5497C16.6133 24.8213 16.1483 25.6997 15.5083 26.2413ZM21.6667 21.6163H19.1133V23.1347H21.5V24.358H19.1133V27.0313H17.6033V20.383H21.6667V21.6163ZM16.6667 11.9997H15V3.66634L23.3333 11.9997H16.6667Z" fill="#EA4335"/>
</svg>